<?xml version="1.0" encoding="UTF-8" standalone="no"?>
<!DOCTYPE svg PUBLIC "-//W3C//DTD SVG 1.1//EN"
 "http://www.w3.org/Graphics/SVG/1.1/DTD/svg11.dtd">
<!-- Generated by graphviz version 2.38.0 (20140413.2041)
 -->
<!-- Title: DFA Pages: 1 -->
<svg width="362pt" height="200pt"
 viewBox="0.00 0.00 362.49 200.50" xmlns="http://www.w3.org/2000/svg" xmlns:xlink="http://www.w3.org/1999/xlink">
<g id="graph0" class="graph" transform="scale(1 1) rotate(0) translate(4 196.496)">
<title>DFA</title>
<polygon fill="white" stroke="none" points="-4,4 -4,-196.496 358.488,-196.496 358.488,4 -4,4"/>
<!--   -->
<g id="node1" class="node"><title> </title>
<text text-anchor="middle" x="27" y="-113.048" font-family="Times,serif" font-size="14.00"> </text>
</g>
<!-- q0 -->
<g id="node4" class="node"><title>q0</title>
<ellipse fill="none" stroke="black" cx="117.748" cy="-116.748" rx="22.9609" ry="22.9609"/>
<ellipse fill="none" stroke="black" cx="117.748" cy="-116.748" rx="26.9983" ry="26.9983"/>
<text text-anchor="middle" x="117.748" y="-113.048" font-family="Times,serif" font-size="14.00">q0</text>
</g>
<!--  &#45;&gt;q0 -->
<g id="edge1" class="edge"><title> &#45;&gt;q0</title>
<path fill="none" stroke="black" d="M54.1473,-116.748C62.4527,-116.748 71.7892,-116.748 80.6665,-116.748"/>
<polygon fill="black" stroke="black" points="80.7876,-120.248 90.7876,-116.748 80.7875,-113.248 80.7876,-120.248"/>
</g>
<!-- q1 -->
<g id="node2" class="node"><title>q1</title>
<ellipse fill="none" stroke="black" cx="224.244" cy="-151.748" rx="22.9609" ry="22.9609"/>
<ellipse fill="none" stroke="black" cx="224.244" cy="-151.748" rx="26.9983" ry="26.9983"/>
<text text-anchor="middle" x="224.244" y="-148.048" font-family="Times,serif" font-size="14.00">q1</text>
</g>
<!-- q2 -->
<g id="node3" class="node"><title>q2</title>
<ellipse fill="none" stroke="black" cx="327.74" cy="-132.748" rx="22.9609" ry="22.9609"/>
<ellipse fill="none" stroke="black" cx="327.74" cy="-132.748" rx="26.9983" ry="26.9983"/>
<text text-anchor="middle" x="327.74" y="-129.048" font-family="Times,serif" font-size="14.00">q2</text>
</g>
<!-- q2&#45;&gt;q2 -->
<g id="edge6" class="edge"><title>q2&#45;&gt;q2</title>
<path fill="none" stroke="black" d="M318.447,-158.049C317.806,-168.574 320.904,-177.496 327.74,-177.496 332.226,-177.496 335.102,-173.654 336.368,-168.037"/>
<polygon fill="black" stroke="black" points="339.861,-168.259 337.033,-158.049 332.876,-167.795 339.861,-168.259"/>
<text text-anchor="middle" x="327.74" y="-181.296" font-family="Times,serif" font-size="14.00"> 0</text>
</g>
<!-- q3 -->
<g id="node5" class="node"><title>q3</title>
<ellipse fill="none" stroke="black" cx="224.244" cy="-78.748" rx="22.9609" ry="22.9609"/>
<ellipse fill="none" stroke="black" cx="224.244" cy="-78.748" rx="26.9983" ry="26.9983"/>
<text text-anchor="middle" x="224.244" y="-75.048" font-family="Times,serif" font-size="14.00">q3</text>
</g>
<!-- q2&#45;&gt;q3 -->
<g id="edge7" class="edge"><title>q2&#45;&gt;q3</title>
<path fill="none" stroke="black" d="M307.222,-115.368C299.972,-109.526 291.447,-103.335 282.992,-98.748 275.779,-94.8351 267.653,-91.461 259.824,-88.6573"/>
<polygon fill="black" stroke="black" points="260.752,-85.2769 250.158,-85.4133 258.525,-91.9131 260.752,-85.2769"/>
<text text-anchor="middle" x="275.992" y="-102.548" font-family="Times,serif" font-size="14.00"> 1</text>
</g>
<!-- q0&#45;&gt;q1 -->
<g id="edge2" class="edge"><title>q0&#45;&gt;q1</title>
<path fill="none" stroke="black" d="M143.202,-125.924C149.47,-128.212 156.216,-130.619 162.496,-132.748 170.92,-135.604 180.054,-138.543 188.617,-141.23"/>
<polygon fill="black" stroke="black" points="187.742,-144.623 198.33,-144.248 189.819,-137.938 187.742,-144.623"/>
<text text-anchor="middle" x="170.996" y="-141.548" font-family="Times,serif" font-size="14.00"> 0</text>
</g>
<!-- q0&#45;&gt;q1 -->
<g id="edge5" class="edge"><title>q0&#45;&gt;q1</title>
<path fill="none" stroke="black" d="M143.974,-111.076C155.173,-109.667 168.319,-109.571 179.496,-113.748 186.208,-116.256 192.571,-120.309 198.26,-124.854"/>
<polygon fill="black" stroke="black" points="196.258,-127.756 206.075,-131.742 200.887,-122.504 196.258,-127.756"/>
<text text-anchor="middle" x="170.996" y="-117.548" font-family="Times,serif" font-size="14.00"> ~</text>
</g>
<!-- q0&#45;&gt;q0 -->
<g id="edge4" class="edge"><title>q0&#45;&gt;q0</title>
<path fill="none" stroke="black" d="M109.548,-142.499C109.085,-152.827 111.818,-161.496 117.748,-161.496 121.547,-161.496 124.034,-157.938 125.209,-152.666"/>
<polygon fill="black" stroke="black" points="128.713,-152.727 125.948,-142.499 121.732,-152.219 128.713,-152.727"/>
<text text-anchor="middle" x="117.748" y="-165.296" font-family="Times,serif" font-size="14.00"> ~</text>
</g>
<!-- q0&#45;&gt;q3 -->
<g id="edge3" class="edge"><title>q0&#45;&gt;q3</title>
<path fill="none" stroke="black" d="M140.261,-101.986C147.12,-97.8294 154.905,-93.6542 162.496,-90.748 170.419,-87.7148 179.229,-85.4114 187.628,-83.676"/>
<polygon fill="black" stroke="black" points="188.386,-87.0951 197.58,-81.8301 187.109,-80.2125 188.386,-87.0951"/>
<text text-anchor="middle" x="170.996" y="-94.548" font-family="Times,serif" font-size="14.00"> 1</text>
</g>
<!-- q3&#45;&gt;q2 -->
<g id="edge9" class="edge"><title>q3&#45;&gt;q2</title>
<path fill="none" stroke="black" d="M244.653,-96.7388C251.892,-102.763 260.439,-109.116 268.992,-113.748 276.105,-117.6 284.135,-120.848 291.895,-123.509"/>
<polygon fill="black" stroke="black" points="290.9,-126.866 301.491,-126.567 293.026,-120.196 290.9,-126.866"/>
<text text-anchor="middle" x="275.992" y="-123.548" font-family="Times,serif" font-size="14.00"> 1</text>
</g>
<!-- q4 -->
<g id="node6" class="node"><title>q4</title>
<ellipse fill="none" stroke="black" cx="327.74" cy="-26.748" rx="22.9609" ry="22.9609"/>
<ellipse fill="none" stroke="black" cx="327.74" cy="-26.748" rx="26.9983" ry="26.9983"/>
<text text-anchor="middle" x="327.74" y="-23.048" font-family="Times,serif" font-size="14.00">q4</text>
</g>
<!-- q3&#45;&gt;q4 -->
<g id="edge8" class="edge"><title>q3&#45;&gt;q4</title>
<path fill="none" stroke="black" d="M248.275,-66.9484C261.934,-59.9506 279.456,-50.973 294.477,-43.2776"/>
<polygon fill="black" stroke="black" points="296.145,-46.3557 303.449,-38.6809 292.953,-40.1257 296.145,-46.3557"/>
<text text-anchor="middle" x="275.992" y="-59.548" font-family="Times,serif" font-size="14.00"> 0</text>
</g>
<!-- q4&#45;&gt;q3 -->
<g id="edge10" class="edge"><title>q4&#45;&gt;q3</title>
<path fill="none" stroke="black" d="M300.957,-23.898C290.575,-23.7958 278.769,-25.0619 268.992,-29.748 260.08,-34.0192 252.189,-41.0133 245.648,-48.3976"/>
<polygon fill="black" stroke="black" points="242.691,-46.4865 239.097,-56.453 248.122,-50.9032 242.691,-46.4865"/>
<text text-anchor="middle" x="275.992" y="-33.548" font-family="Times,serif" font-size="14.00"> 0</text>
</g>
<!-- q4&#45;&gt;q4 -->
<g id="edge11" class="edge"><title>q4&#45;&gt;q4</title>
<path fill="none" stroke="black" d="M318.447,-52.049C317.806,-62.574 320.904,-71.496 327.74,-71.496 332.226,-71.496 335.102,-67.6536 336.368,-62.0374"/>
<polygon fill="black" stroke="black" points="339.861,-62.2592 337.033,-52.049 332.876,-61.7946 339.861,-62.2592"/>
<text text-anchor="middle" x="327.74" y="-75.296" font-family="Times,serif" font-size="14.00"> 1</text>
</g>
</g>
</svg>
