<?xml version="1.0" encoding="UTF-8" standalone="no"?>
<!DOCTYPE svg PUBLIC "-//W3C//DTD SVG 1.1//EN"
 "http://www.w3.org/Graphics/SVG/1.1/DTD/svg11.dtd">
<!-- Generated by graphviz version 2.38.0 (20140413.2041)
 -->
<!-- Title: DFA Pages: 1 -->
<svg width="401pt" height="135pt"
 viewBox="0.00 0.00 401.00 135.00" xmlns="http://www.w3.org/2000/svg" xmlns:xlink="http://www.w3.org/1999/xlink">
<g id="graph0" class="graph" transform="scale(1 1) rotate(0) translate(4 131)">
<title>DFA</title>
<polygon fill="white" stroke="none" points="-4,4 -4,-131 397,-131 397,4 -4,4"/>
<!--   -->
<g id="node1" class="node"><title> </title>
<text text-anchor="middle" x="27" y="-14.3" font-family="Times,serif" font-size="14.00"> </text>
</g>
<!-- 0 -->
<g id="node3" class="node"><title>0</title>
<ellipse fill="none" stroke="black" cx="109" cy="-18" rx="18" ry="18"/>
<text text-anchor="middle" x="109" y="-14.3" font-family="Times,serif" font-size="14.00">0</text>
</g>
<!--  &#45;&gt;0 -->
<g id="edge1" class="edge"><title> &#45;&gt;0</title>
<path fill="none" stroke="black" d="M54.195,-18C62.6538,-18 72.0513,-18 80.5951,-18"/>
<polygon fill="black" stroke="black" points="80.8257,-21.5001 90.8257,-18 80.8257,-14.5001 80.8257,-21.5001"/>
</g>
<!-- 1 -->
<g id="node2" class="node"><title>1</title>
<ellipse fill="none" stroke="black" cx="199" cy="-57" rx="18" ry="18"/>
<ellipse fill="none" stroke="black" cx="199" cy="-57" rx="22" ry="22"/>
<text text-anchor="middle" x="199" y="-53.3" font-family="Times,serif" font-size="14.00">1</text>
</g>
<!-- 2 -->
<g id="node4" class="node"><title>2</title>
<ellipse fill="none" stroke="black" cx="375" cy="-43" rx="18" ry="18"/>
<text text-anchor="middle" x="375" y="-39.3" font-family="Times,serif" font-size="14.00">2</text>
</g>
<!-- 1&#45;&gt;2 -->
<g id="edge4" class="edge"><title>1&#45;&gt;2</title>
<path fill="none" stroke="black" d="M219.995,-64.2734C226.023,-66.1598 232.711,-67.9536 239,-69 268.816,-73.9607 277.001,-73.693 307,-70 321.55,-68.2088 325.338,-67.3171 339,-62 342.628,-60.5879 346.354,-58.8776 349.959,-57.0688"/>
<polygon fill="black" stroke="black" points="351.906,-59.9959 359.067,-52.1873 348.6,-53.826 351.906,-59.9959"/>
<text text-anchor="middle" x="289" y="-75.8" font-family="Times,serif" font-size="14.00"> 0</text>
</g>
<!-- 3 -->
<g id="node5" class="node"><title>3</title>
<ellipse fill="none" stroke="black" cx="289" cy="-43" rx="18" ry="18"/>
<text text-anchor="middle" x="289" y="-39.3" font-family="Times,serif" font-size="14.00">3</text>
</g>
<!-- 1&#45;&gt;3 -->
<g id="edge5" class="edge"><title>1&#45;&gt;3</title>
<path fill="none" stroke="black" d="M220.855,-53.6822C232.846,-51.7744 248.045,-49.3565 260.948,-47.3038"/>
<polygon fill="black" stroke="black" points="261.8,-50.7123 271.125,-45.6846 260.7,-43.7993 261.8,-50.7123"/>
<text text-anchor="middle" x="246" y="-53.8" font-family="Times,serif" font-size="14.00"> 1</text>
</g>
<!-- 0&#45;&gt;1 -->
<g id="edge2" class="edge"><title>0&#45;&gt;1</title>
<path fill="none" stroke="black" d="M125.733,-24.9724C137.783,-30.3129 154.739,-37.8274 169.198,-44.2355"/>
<polygon fill="black" stroke="black" points="168.158,-47.6029 178.719,-48.4548 170.994,-41.2032 168.158,-47.6029"/>
<text text-anchor="middle" x="152" y="-41.8" font-family="Times,serif" font-size="14.00"> 0</text>
</g>
<!-- 0&#45;&gt;2 -->
<g id="edge3" class="edge"><title>0&#45;&gt;2</title>
<path fill="none" stroke="black" d="M126.73,-14.8276C161.196,-8.93973 242.303,1.56295 307,-16 321.325,-19.8887 336.726,-25.9531 349.145,-31.3501"/>
<polygon fill="black" stroke="black" points="347.831,-34.5964 358.389,-35.481 350.687,-28.2055 347.831,-34.5964"/>
<text text-anchor="middle" x="246" y="-10.8" font-family="Times,serif" font-size="14.00"> 1</text>
</g>
<!-- 2&#45;&gt;2 -->
<g id="edge6" class="edge"><title>2&#45;&gt;2</title>
<path fill="none" stroke="black" d="M371.225,-60.7817C370.583,-70.3149 371.842,-79 375,-79 376.925,-79 378.144,-75.7749 378.657,-71.0981"/>
<polygon fill="black" stroke="black" points="382.16,-70.8211 378.775,-60.7817 375.161,-70.741 382.16,-70.8211"/>
<text text-anchor="middle" x="375" y="-82.8" font-family="Times,serif" font-size="14.00"> 0</text>
</g>
<!-- 2&#45;&gt;2 -->
<g id="edge7" class="edge"><title>2&#45;&gt;2</title>
<path fill="none" stroke="black" d="M368.855,-60.1418C365.241,-77.585 367.289,-97 375,-97 381.205,-97 383.743,-84.4283 382.614,-70.4287"/>
<polygon fill="black" stroke="black" points="386.024,-69.5461 381.145,-60.1418 379.094,-70.5363 386.024,-69.5461"/>
<text text-anchor="middle" x="375" y="-100.8" font-family="Times,serif" font-size="14.00"> 1</text>
</g>
<!-- 3&#45;&gt;1 -->
<g id="edge8" class="edge"><title>3&#45;&gt;1</title>
<path fill="none" stroke="black" d="M272.911,-34.0174C263.182,-29.3744 250.286,-25.3683 239,-29 233.875,-30.6493 228.853,-33.2489 224.209,-36.2142"/>
<polygon fill="black" stroke="black" points="221.915,-33.5513 215.815,-42.2138 225.986,-39.2461 221.915,-33.5513"/>
<text text-anchor="middle" x="246" y="-32.8" font-family="Times,serif" font-size="14.00"> 0</text>
</g>
<!-- 3&#45;&gt;2 -->
<g id="edge9" class="edge"><title>3&#45;&gt;2</title>
<path fill="none" stroke="black" d="M307.405,-43C318.743,-43 333.773,-43 346.685,-43"/>
<polygon fill="black" stroke="black" points="346.905,-46.5001 356.905,-43 346.905,-39.5001 346.905,-46.5001"/>
<text text-anchor="middle" x="332" y="-46.8" font-family="Times,serif" font-size="14.00"> 1</text>
</g>
</g>
</svg>
