<?xml version="1.0" encoding="UTF-8" standalone="no"?>
<!DOCTYPE svg PUBLIC "-//W3C//DTD SVG 1.1//EN"
 "http://www.w3.org/Graphics/SVG/1.1/DTD/svg11.dtd">
<!-- Generated by graphviz version 2.38.0 (20140413.2041)
 -->
<!-- Title: DFA Pages: 1 -->
<svg width="437pt" height="276pt"
 viewBox="0.00 0.00 437.48 276.49" xmlns="http://www.w3.org/2000/svg" xmlns:xlink="http://www.w3.org/1999/xlink">
<g id="graph0" class="graph" transform="scale(1 1) rotate(0) translate(4 272.493)">
<title>DFA</title>
<polygon fill="white" stroke="none" points="-4,4 -4,-272.493 433.481,-272.493 433.481,4 -4,4"/>
<!--   -->
<g id="node1" class="node"><title> </title>
<text text-anchor="middle" x="27" y="-187.546" font-family="Times,serif" font-size="14.00"> </text>
</g>
<!-- q0 -->
<g id="node4" class="node"><title>q0</title>
<ellipse fill="none" stroke="black" cx="117.748" cy="-191.246" rx="22.9609" ry="22.9609"/>
<ellipse fill="none" stroke="black" cx="117.748" cy="-191.246" rx="26.9983" ry="26.9983"/>
<text text-anchor="middle" x="117.748" y="-187.546" font-family="Times,serif" font-size="14.00">q0</text>
</g>
<!--  &#45;&gt;q0 -->
<g id="edge1" class="edge"><title> &#45;&gt;q0</title>
<path fill="none" stroke="black" d="M54.1473,-191.246C62.4527,-191.246 71.7892,-191.246 80.6665,-191.246"/>
<polygon fill="black" stroke="black" points="80.7876,-194.746 90.7876,-191.246 80.7875,-187.746 80.7876,-194.746"/>
</g>
<!-- cero -->
<g id="node2" class="node"><title>cero</title>
<ellipse fill="none" stroke="black" cx="240.742" cy="-225.246" rx="31.373" ry="31.373"/>
<ellipse fill="none" stroke="black" cx="240.742" cy="-225.246" rx="35.3956" ry="35.3956"/>
<text text-anchor="middle" x="240.742" y="-221.546" font-family="Times,serif" font-size="14.00">cero</text>
</g>
<!-- 0mod3 -->
<g id="node3" class="node"><title>0mod3</title>
<ellipse fill="none" stroke="black" cx="383.235" cy="-189.246" rx="42.4724" ry="42.4724"/>
<ellipse fill="none" stroke="black" cx="383.235" cy="-189.246" rx="46.4938" ry="46.4938"/>
<text text-anchor="middle" x="383.235" y="-185.546" font-family="Times,serif" font-size="14.00">0mod3</text>
</g>
<!-- 0mod3&#45;&gt;0mod3 -->
<g id="edge4" class="edge"><title>0mod3&#45;&gt;0mod3</title>
<path fill="none" stroke="black" d="M370.267,-233.685C371.119,-244.999 375.442,-253.493 383.235,-253.493 388.471,-253.493 392.14,-249.658 394.243,-243.711"/>
<polygon fill="black" stroke="black" points="397.719,-244.171 396.203,-233.685 390.849,-242.828 397.719,-244.171"/>
<text text-anchor="middle" x="383.235" y="-257.293" font-family="Times,serif" font-size="14.00"> 0</text>
</g>
<!-- 1mod3 -->
<g id="node5" class="node"><title>1mod3</title>
<ellipse fill="none" stroke="black" cx="240.742" cy="-126.246" rx="42.4724" ry="42.4724"/>
<ellipse fill="none" stroke="black" cx="240.742" cy="-126.246" rx="46.4938" ry="46.4938"/>
<text text-anchor="middle" x="240.742" y="-122.546" font-family="Times,serif" font-size="14.00">1mod3</text>
</g>
<!-- 0mod3&#45;&gt;1mod3 -->
<g id="edge5" class="edge"><title>0mod3&#45;&gt;1mod3</title>
<path fill="none" stroke="black" d="M344.286,-163.726C336.145,-158.859 327.443,-154.092 318.988,-150.246 311.536,-146.857 303.473,-143.766 295.462,-141.014"/>
<polygon fill="black" stroke="black" points="296.355,-137.624 285.762,-137.828 294.171,-144.274 296.355,-137.624"/>
<text text-anchor="middle" x="311.988" y="-154.046" font-family="Times,serif" font-size="14.00"> 1</text>
</g>
<!-- q0&#45;&gt;cero -->
<g id="edge2" class="edge"><title>q0&#45;&gt;cero</title>
<path fill="none" stroke="black" d="M143.818,-198.291C158.978,-202.551 178.721,-208.099 196.351,-213.053"/>
<polygon fill="black" stroke="black" points="195.863,-216.552 206.437,-215.887 197.757,-209.813 195.863,-216.552"/>
<text text-anchor="middle" x="169.496" y="-210.046" font-family="Times,serif" font-size="14.00"> 0</text>
</g>
<!-- q0&#45;&gt;1mod3 -->
<g id="edge3" class="edge"><title>q0&#45;&gt;1mod3</title>
<path fill="none" stroke="black" d="M141.791,-178.867C155.56,-171.47 173.596,-161.781 190.434,-152.736"/>
<polygon fill="black" stroke="black" points="192.477,-155.611 199.63,-147.795 189.164,-149.444 192.477,-155.611"/>
<text text-anchor="middle" x="169.496" y="-170.046" font-family="Times,serif" font-size="14.00"> 1</text>
</g>
<!-- 1mod3&#45;&gt;0mod3 -->
<g id="edge7" class="edge"><title>1mod3&#45;&gt;0mod3</title>
<path fill="none" stroke="black" d="M279.691,-151.767C287.832,-156.633 296.534,-161.401 304.988,-165.246 312.44,-168.636 320.504,-171.726 328.515,-174.478"/>
<polygon fill="black" stroke="black" points="327.622,-177.869 338.215,-177.664 329.806,-171.218 327.622,-177.869"/>
<text text-anchor="middle" x="311.988" y="-174.046" font-family="Times,serif" font-size="14.00"> 1</text>
</g>
<!-- 2mod3 -->
<g id="node6" class="node"><title>2mod3</title>
<ellipse fill="none" stroke="black" cx="383.235" cy="-46.2463" rx="42.4724" ry="42.4724"/>
<ellipse fill="none" stroke="black" cx="383.235" cy="-46.2463" rx="46.4938" ry="46.4938"/>
<text text-anchor="middle" x="383.235" y="-42.5463" font-family="Times,serif" font-size="14.00">2mod3</text>
</g>
<!-- 1mod3&#45;&gt;2mod3 -->
<g id="edge6" class="edge"><title>1mod3&#45;&gt;2mod3</title>
<path fill="none" stroke="black" d="M281.251,-103.749C297.562,-94.4612 316.627,-83.6052 333.77,-73.8431"/>
<polygon fill="black" stroke="black" points="335.578,-76.8417 342.536,-68.8519 332.114,-70.7588 335.578,-76.8417"/>
<text text-anchor="middle" x="311.988" y="-92.0463" font-family="Times,serif" font-size="14.00"> 0</text>
</g>
<!-- 2mod3&#45;&gt;1mod3 -->
<g id="edge8" class="edge"><title>2mod3&#45;&gt;1mod3</title>
<path fill="none" stroke="black" d="M337.001,-52.4539C326.088,-55.104 314.765,-58.8774 304.988,-64.2463 295.495,-69.4595 286.438,-76.4977 278.295,-83.9619"/>
<polygon fill="black" stroke="black" points="275.868,-81.4408 271.088,-90.8964 280.721,-86.4849 275.868,-81.4408"/>
<text text-anchor="middle" x="311.988" y="-68.0463" font-family="Times,serif" font-size="14.00"> 0</text>
</g>
<!-- 2mod3&#45;&gt;2mod3 -->
<g id="edge9" class="edge"><title>2mod3&#45;&gt;2mod3</title>
<path fill="none" stroke="black" d="M370.267,-90.6854C371.119,-101.999 375.442,-110.493 383.235,-110.493 388.471,-110.493 392.14,-106.658 394.243,-100.711"/>
<polygon fill="black" stroke="black" points="397.719,-101.171 396.203,-90.6854 390.849,-99.8281 397.719,-101.171"/>
<text text-anchor="middle" x="383.235" y="-114.293" font-family="Times,serif" font-size="14.00"> 1</text>
</g>
</g>
</svg>
